<svg width="512" height="512" viewBox="0 0 512 512" fill="none" xmlns="http://www.w3.org/2000/svg">
  <rect width="512" height="512" rx="64" fill="#1976d2"/>
  <rect x="64" y="64" width="384" height="384" rx="32" fill="white"/>
  
  <!-- Asset icon -->
  <rect x="128" y="128" width="256" height="192" rx="16" fill="#1976d2" stroke="#1976d2" stroke-width="4"/>
  <rect x="144" y="144" width="224" height="160" rx="8" fill="white"/>
  
  <!-- QR code pattern -->
  <g fill="#1976d2">
    <rect x="160" y="160" width="32" height="32"/>
    <rect x="208" y="160" width="16" height="16"/>
    <rect x="240" y="160" width="32" height="32"/>
    <rect x="288" y="160" width="16" height="16"/>
    <rect x="320" y="160" width="32" height="32"/>
    
    <rect x="160" y="192" width="16" height="16"/>
    <rect x="192" y="192" width="16" height="16"/>
    <rect x="224" y="192" width="16" height="16"/>
    <rect x="256" y="192" width="16" height="16"/>
    <rect x="288" y="192" width="16" height="16"/>
    <rect x="320" y="192" width="32" height="32"/>
    
    <rect x="160" y="224" width="32" height="32"/>
    <rect x="208" y="224" width="16" height="16"/>
    <rect x="240" y="224" width="16" height="16"/>
    <rect x="272" y="224" width="16" height="16"/>
    <rect x="304" y="224" width="16" height="16"/>
    <rect x="336" y="224" width="16" height="16"/>
  </g>
  
  <!-- Asset label -->
  <rect x="160" y="272" width="192" height="16" rx="8" fill="#e3f2fd"/>
  <rect x="160" y="296" width="128" height="12" rx="6" fill="#e3f2fd"/>
  
  <!-- Tracking indicator -->
  <circle cx="384" cy="384" r="32" fill="#4caf50"/>
  <path d="M376 384l8 8 16-16" stroke="white" stroke-width="4" fill="none" stroke-linecap="round" stroke-linejoin="round"/>
</svg>